<svg width="16" height="17" viewBox="0 0 16 17" fill="none" xmlns="http://www.w3.org/2000/svg">
<path d="M13.5854 5.48572C13.6683 5.40284 13.7851 5.39249 13.8765 5.45447L13.9146 5.48572C14.0086 5.57989 14.0094 5.71813 13.9165 5.81287L8.1665 11.4623L8.16455 11.4642C8.06824 11.5605 8.02264 11.5668 7.99951 11.5668C7.93967 11.5667 7.88852 11.5509 7.81689 11.4955L2.0835 5.86267C2.0024 5.77993 1.9927 5.66426 2.0542 5.57361L2.08545 5.53552C2.16829 5.45277 2.28515 5.44238 2.37646 5.50427L2.41455 5.53552L2.41748 5.53845L7.76709 10.764L8.00146 10.9926L8.23389 10.7621L13.5835 5.48767L13.5854 5.48572Z" fill="#231815" stroke="#231815" stroke-width="0.666667"/>
</svg>
