<svg width="80" height="80" viewBox="0 0 80 80" fill="none" xmlns="http://www.w3.org/2000/svg">
<path d="M60.24 55.37L75 70.125L70.125 75L55.37 60.24C50.8059 63.8802 45.3073 66.1587 39.5062 66.8137C33.705 67.4688 27.8368 66.4738 22.5759 63.9431C17.3149 61.4123 12.8748 57.4486 9.7657 52.5074C6.65661 47.5662 5.00477 41.848 5 36.01C5.00398 27.786 8.27305 19.9 14.0888 14.0852C19.9045 8.27046 27.791 5.00265 36.015 5C41.8526 5.00571 47.5701 6.65823 52.5106 9.76769C57.451 12.8771 61.414 17.3174 63.9441 22.5781C66.4743 27.8389 67.4688 33.7067 66.8136 39.5074C66.1584 45.3081 63.8799 50.8062 60.24 55.37ZM53.33 52.81C56.6343 49.4093 58.8628 45.1099 59.7367 40.4495C60.6106 35.789 60.0912 30.9744 58.2434 26.6076C56.3956 22.2408 53.3014 18.5156 49.3478 15.8979C45.3942 13.2802 40.7567 11.8861 36.015 11.89C32.8465 11.8887 29.7088 12.5118 26.7812 13.7237C23.8536 14.9357 21.1936 16.7126 18.9531 18.9531C16.7126 21.1936 14.9357 23.8536 13.7237 26.7812C12.5118 29.7088 11.8887 32.8465 11.89 36.015C11.8861 40.7567 13.2802 45.3942 15.8979 49.3478C18.5156 53.3014 22.2408 56.3956 26.6076 58.2434C30.9744 60.0912 35.789 60.6106 40.4495 59.7367C45.1099 58.8628 49.4093 56.6343 52.81 53.33L53.33 52.81ZM40.075 22.835C39.057 23.2929 38.1654 23.9911 37.4767 24.8696C36.7881 25.7481 36.3231 26.7807 36.1216 27.8786C35.9201 28.9765 35.9882 30.107 36.32 31.1728C36.6518 32.2385 37.2374 33.2078 38.0265 33.9974C38.8156 34.7869 39.7846 35.373 40.8502 35.7054C41.9158 36.0378 43.0462 36.1065 44.1442 35.9056C45.2422 35.7047 46.2751 35.2403 47.154 34.5521C48.0329 33.864 48.7316 32.9728 49.19 31.955C49.7791 33.8526 49.9511 35.8551 49.6943 37.8253C49.4376 39.7956 48.7581 41.6871 47.7024 43.3703C46.6467 45.0536 45.2397 46.4888 43.5778 47.5778C41.9159 48.6667 40.0383 49.3837 38.0735 49.6796C36.1087 49.9754 34.1032 49.8433 32.1943 49.292C30.2854 48.7408 28.5181 47.7836 27.0135 46.4859C25.5089 45.1882 24.3025 43.5808 23.4769 41.7735C22.6512 39.9662 22.2259 38.0019 22.23 36.015C22.229 33.8567 22.7348 31.7284 23.7066 29.8013C24.6784 27.8743 26.0892 26.2023 27.8252 24.9201C29.5613 23.6379 31.5742 22.7812 33.7019 22.419C35.8295 22.0569 38.0125 22.1993 40.075 22.835Z" fill="#808080" fill-opacity="0.55"/>
</svg>
