<svg width="803" height="118" viewBox="0 0 803 118" fill="none" xmlns="http://www.w3.org/2000/svg">
<path d="M173.172 26.3641L155.838 90.9501H173.278L189.425 30.8174L209.904 30.7107L193.905 90.9501H211.491L227.064 30.5107H228.131C232.131 30.6307 236.131 31.1507 239.038 34.084C244.024 39.1773 243.451 44.7506 242.251 51.0439L242.104 51.8305C241.677 54.0838 241.144 56.8838 240.517 59.2704L231.998 91.0034H249.331L258.264 58.0438C259.116 55.0046 259.564 51.8666 259.597 48.7106C259.597 41.164 256.677 35.524 250.797 31.4707C245.348 27.8911 238.927 26.0798 232.411 26.2841H232.158L173.172 26.3641ZM450.369 26.2575L433.035 90.9901L450.835 91.0568L467.755 26.3108L450.369 26.2575ZM517.208 26.2175C510.565 26.4255 504.027 27.9387 497.968 30.6707C484.728 36.204 476.235 45.7239 472.635 58.9638C471.758 62.0886 471.31 65.3181 471.302 68.5637C471.302 76.0969 474.182 81.7102 479.955 85.7502C484.942 89.2168 491.235 90.9501 498.621 90.9101H509.528C516.171 90.709 522.709 89.2002 528.768 86.4702C542.101 80.7902 550.674 70.9237 554.381 57.1371C555.161 54.2047 555.564 51.1849 555.581 48.1506C555.581 40.724 552.634 35.2174 546.714 31.2974C541.181 27.7618 534.703 25.9946 528.141 26.2308L517.208 26.2175ZM511.955 79.5502H505.368C503.362 79.6519 501.36 79.2828 499.521 78.4725C497.683 77.6622 496.06 76.4332 494.782 74.8836C492.156 71.4038 490.822 67.1191 491.008 62.7637C491.014 59.8082 491.368 56.8635 492.062 53.9905C494.528 44.1106 499.328 37.004 506.301 32.8441C509.374 30.8568 512.914 29.7077 516.568 29.5108H523.155C525.165 29.4097 527.17 29.783 529.01 30.6007C530.849 31.4183 532.47 32.6573 533.741 34.2174C536.355 37.7295 537.691 42.029 537.528 46.4039C537.513 49.3735 537.128 52.3296 536.381 55.2038C533.914 65.0571 529.115 72.1236 522.128 76.2169C519.107 78.2014 515.606 79.3303 511.995 79.4836L511.955 79.5502ZM757.632 30.6707L741.526 90.9368H759.232L775.365 30.6707L801.938 30.6041L802.885 26.2975H731.992L731.006 30.5907L757.632 30.6707Z" fill="#231815"/>
<path d="M321.41 58.2704C321.431 60.9119 320.667 63.5002 319.215 65.7068C317.763 67.9134 315.688 69.639 313.254 70.6645C310.819 71.69 308.135 71.9693 305.542 71.467C302.948 70.9646 300.563 69.7033 298.687 67.8429C296.812 65.9825 295.531 63.607 295.008 61.0178C294.485 58.4285 294.743 55.7422 295.749 53.2997C296.755 50.8571 298.463 48.7684 300.658 47.2986C302.853 45.8287 305.435 45.044 308.077 45.0439C311.595 45.0438 314.97 46.4339 317.467 48.9113C319.965 51.3888 321.382 54.7528 321.41 58.2704Z" fill="#DF0522"/>
<path d="M351.823 26.3108H315.757C281.224 26.4974 271.917 58.8704 271.824 59.1904L263.344 91.0034H280.824C283.739 77.8235 287.344 64.8057 291.624 52.0038C298.544 31.2174 313.89 30.1641 316.89 30.1641H317.677L333.677 30.0574L317.33 90.9634H334.583L351.823 26.3108ZM573.607 26.2308L556.888 91.0701L571.914 90.9901L584.834 37.1773L608.607 91.1501L626.567 91.0701L643.167 26.2574L628.193 26.3374L615.994 77.2303L593.794 26.3108L573.607 26.2308ZM676.326 35.404C680.434 32.255 685.485 30.587 690.659 30.6707H722.312L723.552 26.3774H691.139C684.491 26.599 677.953 28.1495 671.913 30.9374C658.58 36.6307 650.02 46.4972 646.367 60.2704C645.529 63.1988 645.08 66.2248 645.033 69.2703C645.033 76.7369 647.98 82.2969 653.913 86.2702C658.873 89.5635 664.58 91.1101 671.793 91.1101H672.62L706.219 91.0168L708.633 81.9769L678.446 82.1502C674.446 82.1502 672.02 80.2836 669.513 78.3636L668.766 77.7902C663.26 73.6036 663.753 64.2971 663.98 59.8304V59.4304L715.073 59.1504L717.939 50.3772L665.94 50.6572C666.473 49.0039 666.926 47.8439 666.966 47.7239C668.967 42.8763 672.193 38.6312 676.326 35.404ZM387.169 38.1907C391.569 34.5374 399.169 30.6174 404.729 30.5907L435.582 30.6707L436.795 26.3641L401.022 26.2708C394.374 26.4869 387.833 28.0044 381.769 30.7374C368.529 36.2973 360.023 45.8439 356.436 59.1238C355.566 62.2636 355.117 65.5054 355.103 68.7637C355.103 76.3103 357.983 81.9502 363.77 86.0035C368.676 89.4435 374.729 90.9501 382.009 90.9501H419.449L429.329 54.0572H399.729L398.583 58.2971H410.582L404.276 81.9902L388.276 82.0835C386.308 82.1876 384.341 81.8542 382.518 81.1072C380.694 80.3602 379.059 79.2183 377.729 77.7636C375.108 74.5684 373.755 70.5196 373.929 66.3904C373.934 63.628 374.288 60.8773 374.983 58.2038C377.463 49.1372 380.983 43.3373 387.169 38.1907Z" fill="#231815"/>
<path d="M131.212 3.20436C111.999 -6.20888 77.9992 5.791 51.7594 30.8041L51.0395 31.4974C50.8928 31.6441 50.7461 31.7907 50.5861 31.9241C50.4261 32.0574 50.1195 32.3907 49.8795 32.6174C49.834 32.6696 49.785 32.7186 49.7328 32.764C47.4928 35.004 45.3328 37.3373 43.1995 39.7506L41.6529 41.564C44.6349 38.9955 47.7791 36.6218 51.0661 34.4574L52.3994 33.5907L53.1194 33.1374C58.275 29.9017 63.8277 27.3472 69.6393 25.5375C75.082 23.7823 80.8313 23.1828 86.5191 23.7775C89.462 24.1315 92.3243 24.9789 94.9857 26.2841C110.666 34.0574 110.666 58.2971 96.4523 80.0036C96.1057 80.6302 95.7457 81.2569 95.3723 81.8702C85.9191 97.6834 72.2926 109.337 58.906 114.23C57.5167 114.747 56.1015 115.192 54.6661 115.563C51.8786 116.49 48.9635 116.976 46.0262 117.003C44.4816 117.027 42.9379 116.916 41.4129 116.67C43.5703 117.073 45.7671 117.225 47.9595 117.123C69.9459 117.337 99.2523 102.083 120.932 77.6702C147.998 47.1639 152.652 13.6842 131.212 3.20436Z" fill="#F6BEC8"/>
<path d="M30.1997 112.337C29.933 112.163 29.893 112.15 29.293 111.71C32.4486 113.871 36.0004 115.386 39.7441 116.169C43.4877 116.951 47.3492 116.986 51.1061 116.27C52.2794 116.083 53.4794 115.843 54.6661 115.537C60.4103 113.655 65.4189 110.018 68.9856 105.138C72.5524 100.258 74.4972 94.3811 74.5459 88.3368C74.5432 83.7074 73.4157 79.1479 71.2604 75.0507C69.1051 70.9536 65.9865 67.4415 62.1731 64.8167C58.3596 62.192 53.9655 60.5331 49.3689 59.9828C44.7723 59.4326 40.1108 60.0075 35.7856 61.6581C31.4603 63.3086 27.601 65.9854 24.5395 69.4581C21.4781 72.9307 19.3063 77.0953 18.211 81.5933C17.1157 86.0913 17.1298 90.7881 18.252 95.2795C19.3742 99.7709 21.5709 103.922 24.6531 107.377C23.0404 105.631 21.5941 103.738 20.3331 101.723C14.4995 91.9325 11.4521 80.7338 11.5199 69.337C11.5199 49.9772 20.3731 30.8307 33.5863 27.0441C35.1988 26.5412 36.885 26.3158 38.5729 26.3774H39.5062C40.5484 26.4412 41.5809 26.6155 42.5862 26.8974C43.8278 27.1928 45.028 27.6406 46.1595 28.2308C47.1023 28.7399 47.9539 29.4023 48.6795 30.1907C48.949 30.5035 49.1858 30.8431 49.3861 31.2041C49.2928 30.8174 49.1861 30.4574 49.0795 30.1107L48.9995 29.8441C48.6528 28.7108 48.2928 27.6574 47.9062 26.4708C43.9995 14.1376 31.7863 9.40429 20.8798 13.0576C2.06663 19.3509 -5.2133 46.9906 3.99994 75.3369C9.18655 91.5901 17.6265 103.523 27.213 110.39C28.5366 111.36 29.9168 112.251 31.3463 113.057C31.9197 113.39 32.5063 113.697 33.1196 113.99H33.2663C33.973 114.337 34.7063 114.657 35.4663 114.963C37.3805 115.729 39.3755 116.274 41.4129 116.59C39.7799 116.274 38.1748 115.828 36.6129 115.257C34.3856 114.493 32.2377 113.515 30.1997 112.337Z" fill="#DF0522"/>
<path d="M54.6661 115.537C53.4794 115.843 52.2794 116.083 51.1061 116.27C47.3554 116.98 43.5013 116.943 39.7649 116.161C36.0286 115.378 32.4835 113.866 29.333 111.71C29.933 112.15 29.973 112.163 30.2397 112.337C32.2736 113.552 34.4216 114.566 36.6529 115.363C38.2147 115.935 39.8199 116.381 41.4529 116.697C42.9779 116.942 44.5216 117.054 46.0662 117.03C48.9929 116.981 51.8943 116.477 54.6661 115.537Z" fill="#E60012"/>
<path d="M33.5863 26.9908C35.2083 26.5325 36.8875 26.308 38.5729 26.3241C36.885 26.2625 35.1988 26.4879 33.5863 26.9908Z" fill="white"/>
</svg>
